# xmcd CD database file
#
# Track frame offsets:
#	150
#	16459
#	35058
#	48169
#	66616
#	78295
#	91163
#	106241
#	124969
#	142087
#
# Disc length: 2085 seconds
#
# Revision: 0
# Processed by: cddbd v1.5.2PL0 Copyright (c) Steve Scherf et al.
# Submitted via: cddb-tool 0.4.7
#
DISCID=8908210a,8908230a
DTITLE=Climax Blues Band - Flying The Flag
DYEAR=1900
DGENRE=Blues
TTITLE0=Gotta Have More Love
TTITLE1=So Good After Midnight
TTITLE2=Horizontalized
TTITLE3=I Love You
TTITLE4=Hold On To Your Heart
TTITLE5=Dance The Night Away
TTITLE6=Money Talkin'
TTITLE7=Blackjack And Me
TTITLE8=Nothing But Starlight
TTITLE9=One For Me And You
EXTD=
EXTT0=
EXTT1=
EXTT2=
EXTT3=
EXTT4=
EXTT5=
EXTT6=
EXTT7=
EXTT8=
EXTT9=
PLAYORDER=
